<?xml version="1.0" encoding="utf-8"?>
<svg version="1.1" xmlns:xlink="http://www.w3.org/1999/xlink" width="32px" height="32px" xmlns="http://www.w3.org/2000/svg">
  <g transform="matrix(1 0 0 1 0 -1 )">
    <path d="M 15.5448888888889 18.5031111111111  L 7.808 25.709037037037  L 14.0278518518518 25.709037037037  C 14.482962962963 25.709037037037  14.7863703703704 26.0124444444444  14.7863703703704 26.4675555555556  C 14.7863703703704 26.9226666666667  14.482962962963 27.2260740740741  14.0278518518518 27.2260740740741  L 5.9117037037037 27.2260740740741  C 5.45659259259259 27.2260740740741  5.15318518518518 26.9226666666667  5.15318518518518 26.4675555555556  L 5.15318518518518 26.3917037037037  L 5.15318518518518 18.7306666666667  C 5.15318518518518 18.2755555555556  5.45659259259259 17.9721481481482  5.9117037037037 17.9721481481482  C 6.36681481481481 17.9721481481482  6.67022222222222 18.2755555555556  6.67022222222222 18.7306666666667  L 6.67022222222222 24.7988148148148  L 14.482962962963 17.4411851851852  C 14.7863703703704 17.1377777777778  15.2414814814815 17.1377777777778  15.5448888888889 17.4411851851852  C 15.8482962962963 17.7445925925926  15.8482962962963 18.1997037037037  15.5448888888889 18.5031111111111  Z M 17.2136296296296 13.4968888888889  L 24.9505185185185 6.29096296296296  L 18.7306666666667 6.29096296296296  C 18.2755555555556 6.29096296296296  17.9721481481481 5.98755555555555  17.9721481481481 5.53244444444444  C 17.9721481481481 5.07733333333333  18.2755555555556 4.77392592592593  18.7306666666667 4.77392592592593  L 26.8468148148148 4.77392592592593  C 27.3019259259259 4.77392592592593  27.6053333333333 5.07733333333333  27.6053333333333 5.53244444444444  L 27.6053333333333 13.2693333333333  C 27.6053333333333 13.7244444444444  27.3019259259259 14.0278518518519  26.8468148148148 14.0278518518519  C 26.3917037037037 14.0278518518519  26.0882962962963 13.7244444444444  26.0882962962963 13.2693333333333  L 26.0882962962963 7.20118518518519  L 18.2755555555556 14.5588148148148  C 17.9721481481481 14.8622222222222  17.517037037037 14.8622222222222  17.2136296296296 14.5588148148148  C 16.9102222222222 14.2554074074074  16.9102222222222 13.8002962962963  17.2136296296296 13.4968888888889  Z M 32 3.86370370370371  L 32 18.2755555555556  C 31.9288888888889 18.7306666666667  31.6254814814815 19.0340740740741  31.1703703703704 19.0340740740741  C 30.7152592592593 19.0340740740741  30.4118518518518 18.7306666666667  30 18.2755555555556  L 30 3.86370370370371  C 30.4118518518518 2.57422222222222  29.4257777777778 1.58814814814815  28.1362962962963 2  L 3.8637037037037 2  C 2.57422222222222 1.58814814814815  1.58814814814814 2.57422222222222  2 3.86370370370371  L 2 28.1362962962963  C 1.58814814814814 29.4257777777778  2.57422222222222 30.4118518518519  3.8637037037037 30  L 28.1362962962963 30  C 29.4257777777778 30.4118518518519  30.4118518518518 29.4257777777778  30.4118518518518 28.1362962962963  L 30.4118518518518 24.6471111111111  C 30.4118518518518 24.192  30.7152592592593 23.8885925925926  31.1703703703704 23.8885925925926  C 31.6254814814815 23.8885925925926  31.9288888888889 24.192  31.9288888888889 24.6471111111111  L 31.9288888888889 28.1362962962963  C 31.9288888888889 30.2601481481482  30.2601481481481 31.9288888888889  28.1362962962963 32  L 3.8637037037037 32  C 1.73985185185185 31.9288888888889  0.0711111111111085 30.2601481481481  0 28.1362962962963  L 0 3.86370370370371  C 0.0711111111111085 1.73985185185185  1.73985185185185 0.0711111111111127  3.8637037037037 0  L 28.1362962962963 0  C 30.2601481481481 0.0711111111111127  31.9288888888889 1.73985185185185  32 3.86370370370371  Z " fill-rule="nonzero" fill="#2c79d5" stroke="none" transform="matrix(1 0 0 1 0 1 )" />
  </g>
</svg>