<?xml version="1.0" encoding="utf-8"?>
<svg version="1.1" xmlns:xlink="http://www.w3.org/1999/xlink" width="32px" height="32px" xmlns="http://www.w3.org/2000/svg">
  <g transform="matrix(1 0 0 1 173 206 )">
    <path d="M 27.6811851851852 5.6082962962963  L 19.9442962962963 12.8142222222222  L 26.1641481481481 12.8142222222222  C 26.6192592592593 12.8142222222222  26.9226666666667 13.1176296296296  26.9226666666667 13.5727407407407  C 26.9226666666667 14.0278518518519  26.6192592592593 14.3312592592593  26.1641481481481 14.3312592592593  L 18.048 14.3312592592593  C 17.5928888888889 14.3312592592593  17.2894814814815 14.0278518518519  17.2894814814815 13.5727407407407  L 17.2894814814815 13.4968888888889  L 17.2894814814815 5.83585185185185  C 17.2894814814815 5.38074074074074  17.5928888888889 5.07733333333333  18.048 5.07733333333333  C 18.5031111111111 5.07733333333333  18.8065185185185 5.38074074074074  18.8065185185185 5.83585185185185  L 18.8065185185185 11.904  L 26.6192592592593 4.54637037037037  C 26.9226666666667 4.24296296296296  27.3777777777778 4.24296296296296  27.6811851851852 4.54637037037037  C 27.9845925925926 4.84977777777778  27.9845925925926 5.30488888888889  27.6811851851852 5.6082962962963  Z M 5.07733333333333 26.3917037037037  L 12.8142222222222 19.1857777777778  L 6.59437037037037 19.1857777777778  C 6.13925925925926 19.1857777777778  5.83585185185185 18.8823703703704  5.83585185185185 18.4272592592593  C 5.83585185185185 17.9721481481481  6.13925925925926 17.6687407407407  6.59437037037037 17.6687407407407  L 14.7105185185185 17.6687407407407  C 15.1656296296296 17.6687407407407  15.469037037037 17.9721481481481  15.469037037037 18.4272592592593  L 15.469037037037 26.1641481481481  C 15.469037037037 26.6192592592593  15.1656296296296 26.9226666666667  14.7105185185185 26.9226666666667  C 14.2554074074074 26.9226666666667  13.952 26.6192592592593  13.952 26.1641481481481  L 13.952 20.096  L 6.13925925925926 27.4536296296296  C 5.83585185185185 27.757037037037  5.38074074074074 27.757037037037  5.07733333333333 27.4536296296296  C 4.77392592592592 27.1502222222222  4.77392592592592 26.6951111111111  5.07733333333333 26.3917037037037  Z M 32 3.8637037037037  L 32 18.2755555555556  C 31.9288888888889 18.7306666666667  31.6254814814815 19.0340740740741  31.1703703703704 19.0340740740741  C 30.7152592592593 19.0340740740741  30.4118518518518 18.7306666666667  30 18.2755555555556  L 30 3.8637037037037  C 30.4118518518518 2.57422222222222  29.4257777777778 1.58814814814815  28.1362962962963 2  L 3.8637037037037 2  C 2.57422222222222 1.58814814814815  1.58814814814814 2.57422222222222  2 3.8637037037037  L 2 28.1362962962963  C 1.58814814814814 29.4257777777778  2.57422222222222 30.4118518518518  3.8637037037037 30  L 28.1362962962963 30  C 29.4257777777778 30.4118518518518  30.4118518518518 29.4257777777778  30.4118518518518 28.1362962962963  L 30.4118518518518 24.6471111111111  C 30.4118518518518 24.192  30.7152592592593 23.8885925925926  31.1703703703704 23.8885925925926  C 31.6254814814815 23.8885925925926  31.9288888888889 24.192  31.9288888888889 24.6471111111111  L 31.9288888888889 28.1362962962963  C 31.9288888888889 30.2601481481481  30.2601481481481 31.9288888888889  28.1362962962963 32  L 3.8637037037037 32  C 1.73985185185185 31.9288888888889  0.0711111111111085 30.2601481481481  0 28.1362962962963  L 0 3.8637037037037  C 0.0711111111111085 1.73985185185185  1.73985185185185 0.0711111111111043  3.8637037037037 0  L 28.1362962962963 0  C 30.2601481481481 0.0711111111111043  31.9288888888889 1.73985185185184  32 3.8637037037037  Z " fill-rule="nonzero" fill="#2c79d5" stroke="none" transform="matrix(1 0 0 1 -173 -206 )" />
  </g>
</svg>