<?xml version="1.0" encoding="utf-8"?>
<svg version="1.1" xmlns:xlink="http://www.w3.org/1999/xlink" width="16px" height="19px" xmlns="http://www.w3.org/2000/svg">
  <g transform="matrix(1 0 0 1 -49 -166 )">
    <path d="M 15.501069625 14.5827239921875  C 15.4983032009889 12.9109963727554  14.7141201832391 11.3448581180582  13.3982212321429 10.3830011757812  C 14.7271389393325 9.42508624618689  15.5198381343722 7.85123521127353  15.5198381343722 6.17067324841912  C 15.5198381343722 3.33928128644172  13.3108307895083 1.04398459216912  10.5858821343722 1.04398459216912  C 10.1332585866935 1.04398459216912  9.68278765013454 1.10869919740471  9.24714385714286 1.2363075859375  C 8.28011246410865 0.435894840150531  7.0803434730452 5.87483319694925E-05  5.8439997659582 5.87483319694925E-05  C 2.82745143963953 5.87483319694925E-05  0.382055855243911 2.54097759774304  0.382055855243911 5.67535984305853  C 0.382055855243911 7.63150501571462  1.35157281367212 9.44976581803371  2.94770189285714 10.4870483671875  C 1.41981927950875 11.537094478909  0.500270414218864 13.3130586876255  0.498930375 15.2164659492188  L 0.498930375 18.0541164873047  C 0.498930375 18.5765135264827  0.906496304400118 19  1.40925435714286 19  L 10.5124941964286 19  C 11.0152522491713 19  11.4228181785714 18.5765135264827  11.4228181785714 18.0541164873047  L 14.5907456428571 18.0541164873047  C 15.0935036955999 18.0541164873047  15.501069625 17.6306300137874  15.501069625 17.1082329746094  L 15.501069625 14.5827239921875  Z M 13.6804216607143 6.17381953222656  L 13.6804216607143 6.18327837792969  C 13.6754043610557 7.98185315813154  12.2707703691323 9.43712521859995  10.5398039107143 9.43711766308594  L 10.0846419285714 9.43711766308594  C 11.6069422267367 7.62631843586427  11.8658875294607 5.01529608743796  10.7309719464286 2.91998024707031  C 12.3889769910493 3.02030857393979  13.6832308447611 4.44813221635507  13.6804216607143 6.17381953222656  Z M 2.31957833928571 5.75763078515625  C 2.31957834914794 3.66804263569029  3.94984206385983 1.97409675292969  5.96087426785714 1.97409675292969  C 7.9719064788281 1.97409675292969  9.60217019642857 3.66804264699893  9.60217019642857 5.75763080371094  C 9.60217019642857 7.84721896042295  7.9719064788281 9.54116485449219  5.96087426785714 9.54116485449219  C 3.94984205688619 9.54116485449219  2.31957833928571 7.84721896042295  2.31957833928571 5.75763080371094  Z M 9.60217021428572 15.2164659492188  L 9.60217021428572 17.1082329746094  L 2.31957833928571 17.1082329746094  L 2.31957833928571 15.2164659492188  C 2.32495579111031 13.4957553450263  3.4471029429835 11.9955264184252  5.05055028571429 11.5653555712891  L 5.05055028571429 13.3246989052734  C 5.05055028571429 13.8470959495752  5.45811621911186 14.2705824272461  5.96087427678572 14.2705824272461  C 6.46363233445957 14.2705824272461  6.87119826785714 13.8470959495752  6.87119826785714 13.3246989052734  L 6.87119826785714 11.5653555712891  C 8.47464561058793 11.9955264184252  9.59679276246112 13.4957553450264  9.60217021428572 15.2164659492188  Z M 13.6895249107143 14.6300181650391  L 13.6804216607143 16.1623494619141  L 11.4228181785714 16.1623494619141  L 11.4228181785714 15.2164659492187  C 11.4098055667326 13.813943106041  10.8974249940923 12.4661065466148  9.98450628571429 11.4329318798828  C 10.1705795700562 11.3961622674527  10.3595011774571 11.3771653594657  10.5489071607143 11.3761788613281  C 12.2798736260816 11.3761713058437  13.6845076208776 12.8314433775868  13.6895249107143 14.6300181650391  Z " fill-rule="nonzero" fill="#f4f7f9" stroke="none" transform="matrix(1 0 0 1 49 166 )" />
  </g>
</svg>